<svg width="361" height="127" viewBox="0 0 361 127" fill="none" xmlns="http://www.w3.org/2000/svg">
<circle cx="63.5" cy="63.5" r="63.5" fill="#fff"/>
<path d="M67.2135 115.263C62.4129 115.263 58.1324 112.783 54.3719 107.823C49.2513 109.343 44.5707 110.103 40.3302 110.103C35.6896 110.103 32.0492 109.223 29.4088 107.462C26.7685 105.782 25.4483 103.662 25.4483 101.102C25.4483 99.1014 26.2884 96.9412 27.9686 94.6209C29.6489 92.3006 32.2492 90.0203 35.7696 87.78C37.2098 86.8999 38.77 86.0198 40.4502 85.1397C42.2104 84.2596 44.0907 83.4595 46.0909 82.7394C45.8509 80.1791 45.7309 77.4588 45.7309 74.5784C45.7309 68.0176 46.451 60.8167 47.8911 52.9757C49.3313 45.0547 51.7316 36.5336 55.092 27.4125C49.1713 30.3729 43.7306 33.8933 38.77 37.9738C33.8094 41.9743 29.9689 46.0948 27.2486 50.3354C26.3684 51.7755 25.2883 52.4956 24.0082 52.4956C23.128 52.4956 22.688 52.0556 22.688 51.1755C22.688 50.5354 23.048 49.5753 23.7681 48.2951C24.4082 47.015 25.5683 45.4148 27.2486 43.4945C30.449 39.8141 34.6095 36.2536 39.7301 32.8132C44.8508 29.3728 50.4515 26.4124 56.5322 23.9321C57.8924 20.1716 59.4526 16.4911 61.2128 12.8907C61.6929 11.8506 62.4129 11.3305 63.3731 11.3305C64.0131 11.3305 64.5332 11.5705 64.9333 12.0506C65.4133 12.4506 65.6534 12.9707 65.6534 13.6108C65.6534 13.9308 65.5733 14.3309 65.4133 14.8109C64.9333 15.9311 64.4532 17.0512 63.9731 18.1714C63.5731 19.2915 63.173 20.4116 62.773 21.5318C63.8931 21.1317 65.0533 20.7717 66.2534 20.4516C67.4536 20.1316 68.6137 19.8116 69.7339 19.4915C75.9746 18.0513 81.5353 17.3313 86.4159 17.3313C92.8167 17.3313 98.0974 18.4114 102.258 20.5717C106.418 22.7319 109.499 25.6923 111.499 29.4528C113.499 33.1332 114.499 37.3337 114.499 42.0543C114.499 46.9349 113.459 52.0956 111.379 57.5363C109.379 62.9769 106.418 68.4576 102.498 73.9783C98.5775 79.419 93.6968 84.5796 87.8561 89.4603C82.0954 94.3409 75.4946 98.6614 68.0536 102.422C64.1332 104.342 60.4127 105.902 56.8923 107.102C58.8125 109.103 60.7727 110.503 62.773 111.303C64.7732 112.103 66.4134 112.503 67.6936 112.503C68.8137 112.503 69.6138 112.263 70.0939 111.783C70.814 110.983 71.5741 110.583 72.3742 110.583C72.9343 110.583 73.4143 110.743 73.8144 111.063C74.2144 111.383 74.4144 111.743 74.4144 112.143C74.4144 112.783 73.8944 113.383 72.8542 113.943C71.8941 114.423 70.934 114.743 69.9739 114.903C69.0138 115.143 68.0937 115.263 67.2135 115.263ZM55.6921 105.662C57.5323 105.022 59.4526 104.222 61.4528 103.262C63.5331 102.382 65.6533 101.302 67.8136 100.022C76.8547 94.8209 84.3357 88.9802 90.2564 82.4994C96.2572 75.9386 100.738 69.2977 103.698 62.5769C106.738 55.8561 108.259 49.6153 108.259 43.8546C108.259 36.9737 106.178 31.333 102.018 26.9325C97.8574 22.4519 91.6166 20.2116 83.2956 20.2116C79.2951 20.2116 74.7745 20.8117 69.7339 22.0118C68.3737 22.3319 67.0135 22.7319 65.6534 23.212C64.2932 23.612 62.933 24.0921 61.5728 24.6522C56.6922 37.4538 53.3318 48.5351 51.4916 57.8963C49.6514 67.1775 48.7712 75.0985 48.8513 81.6593C52.7717 80.2991 56.9723 79.219 61.4528 78.4189C66.0134 77.6188 70.734 77.2187 75.6146 77.2187C76.4947 77.2187 77.3748 77.2587 78.2549 77.3387C79.215 77.3387 80.1752 77.3787 81.1353 77.4588C82.1754 77.5388 82.6955 77.7788 82.6955 78.1788C82.6955 78.8189 81.4953 79.139 79.095 79.139C78.0549 79.139 76.9748 79.099 75.8546 79.019C74.8145 78.9389 73.7744 78.8989 72.7342 78.8989C68.2537 78.8989 63.9731 79.339 59.8926 80.2191C55.8121 81.0992 52.1317 82.2193 48.8513 83.5795C49.0913 88.9402 49.8514 93.4207 51.1315 97.0212C52.4117 100.542 53.9319 103.422 55.6921 105.662ZM43.6906 107.823C46.491 107.823 49.6914 107.342 53.2918 106.382C51.6116 103.822 50.1314 100.742 48.8513 97.1412C47.6511 93.4607 46.771 89.3002 46.2109 84.6597C42.3704 86.5799 39.2501 88.6201 36.8498 90.7804C35.0095 92.3806 33.6494 93.9808 32.7692 95.581C31.8891 97.1812 31.4491 98.6614 31.4491 100.022C31.4491 102.262 32.5292 104.102 34.6895 105.542C36.8498 107.062 39.8501 107.823 43.6906 107.823Z" fill="#B21B1B"/>
<path d="M108.532 77.608C108.004 77.608 107.623 77.344 107.388 76.816C107.212 76.2293 107.124 75.8187 107.124 75.584C107.124 74.6453 107.388 73.7653 107.916 72.944C108.503 72.064 109.148 71.5947 109.852 71.536H110.116C110.82 71.536 111.289 71.712 111.524 72.064C111.817 72.3573 111.964 72.7387 111.964 73.208C111.964 74.088 111.583 75.056 110.82 76.112C110.057 77.1093 109.295 77.608 108.532 77.608ZM104.044 109.112C102.049 109.112 100.7 108.349 99.9959 106.824C99.2919 105.299 98.9399 103.539 98.9399 101.544C98.9399 99.5493 99.1452 97.4667 99.5559 95.296C100.025 93.0667 100.524 91.0427 101.052 89.224C101.639 87.4053 102.079 86.1147 102.372 85.352C103.017 84.0027 103.663 82.8587 104.308 81.92C104.953 80.9227 105.657 80.424 106.42 80.424C106.948 80.424 107.329 80.6293 107.564 81.04C107.857 81.392 108.004 81.8613 108.004 82.448C108.004 83.6213 107.681 84.824 107.036 86.056C106.391 87.2293 105.804 88.344 105.276 89.4C104.103 91.8053 103.164 93.9467 102.46 95.824C101.815 97.7013 101.492 100.048 101.492 102.864C101.492 104.683 101.668 106.003 102.02 106.824C102.431 107.645 102.988 108.056 103.692 108.056C104.631 108.056 105.716 107.528 106.948 106.472C108.18 105.357 109.441 103.891 110.732 102.072C112.023 100.253 113.167 98.288 114.164 96.176C114.809 94.8267 115.308 94.152 115.66 94.152C115.895 94.152 116.012 94.3867 116.012 94.856C116.012 95.5013 115.748 96.44 115.22 97.672C114.751 98.8453 114.164 100.048 113.46 101.28C112.815 102.512 112.199 103.48 111.612 104.184C110.615 105.475 109.471 106.619 108.18 107.616C106.889 108.613 105.511 109.112 104.044 109.112ZM127.193 120.992C126.431 120.992 125.697 120.699 124.993 120.112C124.348 119.525 123.791 118.939 123.321 118.352C121.444 116.181 119.86 113.307 118.569 109.728C117.337 106.149 116.399 102.219 115.753 97.936C115.108 93.5947 114.785 89.1947 114.785 84.736C114.785 80.5707 115.049 76.5227 115.577 72.592C116.164 68.6613 117.044 65.0827 118.217 61.856C119.391 58.6293 120.857 56.048 122.617 54.112C124.905 51.5307 127.105 50.24 129.217 50.24C130.508 50.24 131.535 50.8267 132.297 52C133.119 53.1147 133.529 54.904 133.529 57.368C133.529 59.7147 133.06 62.7067 132.121 66.344C131.241 69.9227 129.716 74.2053 127.545 79.192C126.783 80.8347 125.961 82.4773 125.081 84.12C124.26 85.7627 123.38 87.4933 122.441 89.312C122.089 90.016 121.796 90.368 121.561 90.368C121.444 90.368 121.385 90.2507 121.385 90.016C121.385 89.5467 121.591 88.9307 122.001 88.168C127.34 78.136 130.009 68.1627 130.009 58.248C130.009 54.3173 129.188 52.352 127.545 52.352C126.372 52.352 124.993 53.496 123.409 55.784C121.239 59.0107 119.743 62.8533 118.921 67.312C118.1 71.712 117.689 76.1707 117.689 80.688C117.689 84.0907 117.836 87.4053 118.129 90.632C118.423 93.8 118.775 96.6747 119.185 99.256C119.361 100.371 119.625 101.867 119.977 103.744C120.329 105.621 120.799 107.587 121.385 109.64C121.972 111.752 122.617 113.659 123.321 115.36C124.084 117.12 124.905 118.381 125.785 119.144C126.02 119.32 126.255 119.496 126.489 119.672C126.783 119.907 127.105 120.053 127.457 120.112C127.985 120.112 128.249 120.259 128.249 120.552C128.249 120.845 127.897 120.992 127.193 120.992ZM133.351 114.216C131.532 114.216 129.86 113.864 128.335 113.16C126.809 112.515 125.724 111.283 125.079 109.464C124.844 108.936 124.727 108.291 124.727 107.528C124.727 106.12 125.196 104.829 126.135 103.656C127.015 102.424 128.071 101.397 129.303 100.576C130.593 99.7547 131.796 99.256 132.911 99.08C133.145 99.0213 133.351 98.992 133.527 98.992C133.703 98.992 133.849 98.992 133.967 98.992C134.436 98.992 134.671 99.08 134.671 99.256C134.671 99.5493 134.348 99.8427 133.703 100.136C132.823 100.488 131.884 100.987 130.887 101.632C129.948 102.219 129.127 102.952 128.423 103.832C127.719 104.653 127.367 105.592 127.367 106.648C127.367 106.824 127.367 107 127.367 107.176C127.425 107.411 127.484 107.645 127.543 107.88C128.188 109.757 129.244 111.077 130.711 111.84C132.236 112.603 133.879 112.984 135.639 112.984C136.871 112.984 138.103 112.837 139.335 112.544C140.567 112.251 141.711 111.899 142.767 111.488C145.055 110.608 147.401 109.376 149.807 107.792C152.271 106.267 154.559 104.507 156.671 102.512C158.783 100.517 160.484 98.4347 161.775 96.264C163.065 94.0347 163.711 91.8347 163.711 89.664C163.711 88.608 163.535 87.6107 163.183 86.672C162.655 85.088 161.716 84.0027 160.367 83.416C159.017 82.8293 157.492 82.536 155.791 82.536C153.737 82.536 151.596 82.8587 149.367 83.504C147.196 84.0907 145.377 84.6773 143.911 85.264L143.559 85.352C143.089 85.352 142.767 85.1173 142.591 84.648C142.532 84.5307 142.503 84.384 142.503 84.208C142.503 83.5627 142.825 83.0347 143.471 82.624C144.175 82.1547 144.908 81.7147 145.671 81.304C146.492 80.8347 147.284 80.3653 148.047 79.896C149.279 79.0747 150.687 78.0187 152.271 76.728C153.913 75.3787 155.409 73.912 156.759 72.328C158.108 70.744 158.929 69.2187 159.223 67.752C159.281 67.576 159.311 67.4 159.311 67.224C159.369 67.048 159.399 66.8427 159.399 66.608C159.399 66.4907 159.369 66.3733 159.311 66.256C159.311 66.08 159.281 65.904 159.223 65.728C159.047 65.1413 158.636 64.7307 157.991 64.496C157.345 64.2613 156.553 64.144 155.615 64.144C154.441 64.144 153.063 64.32 151.479 64.672C149.953 65.024 148.428 65.5227 146.903 66.168C144.028 67.2827 141.623 68.72 139.687 70.48C137.809 72.24 136.871 73.8827 136.871 75.408C136.871 75.584 136.871 75.76 136.871 75.936C136.929 76.112 136.988 76.288 137.047 76.464C137.105 76.5813 137.135 76.7867 137.135 77.08C137.135 77.784 136.841 78.136 136.255 78.136C135.551 78.136 134.993 77.5787 134.583 76.464C134.524 76.288 134.465 76.112 134.407 75.936C134.407 75.76 134.407 75.584 134.407 75.408C134.407 74.2347 134.876 73.0907 135.815 71.976C136.753 70.8027 137.897 69.7173 139.247 68.72C140.655 67.7227 142.004 66.872 143.295 66.168C144.644 65.4053 145.671 64.8773 146.375 64.584C147.372 64.1147 148.692 63.704 150.335 63.352C152.036 62.9413 153.679 62.736 155.263 62.736C156.729 62.736 158.02 62.9707 159.135 63.44C160.308 63.9093 161.1 64.76 161.511 65.992C161.745 66.6373 161.863 67.312 161.863 68.016C161.863 69.6587 161.305 71.272 160.191 72.856C159.076 74.3813 157.727 75.7893 156.143 77.08C154.559 78.312 153.092 79.368 151.743 80.248C152.623 80.072 153.561 79.9253 154.559 79.808C155.556 79.6907 156.524 79.632 157.463 79.632C159.516 79.632 161.423 80.0133 163.183 80.776C165.001 81.5387 166.263 82.9467 166.967 85C167.377 86.1733 167.583 87.376 167.583 88.608C167.583 91.1893 166.791 93.6827 165.207 96.088C163.681 98.4347 161.716 100.635 159.311 102.688C156.964 104.741 154.5 106.531 151.919 108.056C149.337 109.581 147.02 110.784 144.967 111.664C143.617 112.251 141.857 112.808 139.687 113.336C137.575 113.923 135.463 114.216 133.351 114.216ZM177.629 116.152C177.218 116.152 176.808 115.536 176.397 114.304C176.162 113.541 176.045 112.603 176.045 111.488C173.64 110.784 172.026 109.229 171.205 106.824C170.853 105.475 170.677 104.125 170.677 102.776C170.677 100.019 171.264 97.1147 172.437 94.064C173.669 90.9547 175.282 87.8453 177.277 84.736C179.272 81.6267 181.442 78.6347 183.789 75.76C186.194 72.8267 188.57 70.1867 190.917 67.84C193.322 65.4347 195.522 63.44 197.517 61.856C197.81 61.5627 198.162 61.416 198.573 61.416C198.925 61.416 199.101 61.5627 199.101 61.856C199.101 62.208 198.808 62.648 198.221 63.176C195.933 65.1707 193.41 67.6347 190.653 70.568C187.896 73.4427 185.285 76.6107 182.821 80.072C180.357 83.5333 178.333 87.0827 176.749 90.72C175.165 94.2987 174.373 97.76 174.373 101.104C174.373 102.747 174.578 104.272 174.989 105.68C175.106 106.091 175.282 106.531 175.517 107C175.752 107.469 176.016 107.88 176.309 108.232C176.954 105.181 178.098 102.219 179.741 99.344C181.384 96.4107 183.173 93.8293 185.109 91.6C186.4 90.1333 188.013 88.7547 189.949 87.464C191.885 86.1147 193.762 85.1467 195.581 84.56C196.109 84.4427 196.637 84.3253 197.165 84.208C197.693 84.0907 198.192 84.032 198.661 84.032C199.893 84.032 201.008 84.3547 202.005 85C203.002 85.5867 203.706 86.6133 204.117 88.08C204.352 88.784 204.469 89.576 204.469 90.456C204.469 92.0987 204.029 93.7707 203.149 95.472C202.328 97.1147 201.242 98.6693 199.893 100.136C198.602 101.603 197.224 102.952 195.757 104.184C194.349 105.357 193.058 106.325 191.885 107.088C190.008 108.261 187.808 109.347 185.285 110.344C182.762 111.4 180.357 111.869 178.069 111.752C178.069 112.163 178.098 112.544 178.157 112.896C178.274 113.248 178.362 113.6 178.421 113.952C178.421 114.011 178.421 114.069 178.421 114.128C178.48 114.187 178.509 114.275 178.509 114.392C178.509 114.803 178.421 115.184 178.245 115.536C178.128 115.947 177.922 116.152 177.629 116.152ZM180.709 110.08C182.41 110.08 184.141 109.64 185.901 108.76C187.72 107.88 189.245 106.971 190.477 106.032C191.826 105.093 193.293 103.803 194.877 102.16C196.52 100.517 197.928 98.728 199.101 96.792C200.274 94.7973 200.861 92.8907 200.861 91.072C200.861 90.368 200.773 89.7227 200.597 89.136C200.362 88.1973 199.893 87.552 199.189 87.2C198.544 86.848 197.81 86.672 196.989 86.672C196.168 86.672 195.405 86.7893 194.701 87.024C192.53 87.6693 190.477 88.8133 188.541 90.456C186.605 92.0987 184.874 94.0053 183.349 96.176C181.882 98.3467 180.68 100.605 179.741 102.952C178.861 105.24 178.304 107.44 178.069 109.552C178.89 109.904 179.77 110.08 180.709 110.08ZM214.819 74.528C214.291 74.6453 213.617 74.4693 212.795 74C212.033 73.5307 211.563 73.0027 211.387 72.416C211.153 71.536 211.27 70.8613 211.739 70.392C212.267 69.864 212.913 69.4827 213.675 69.248C214.497 69.0133 215.201 68.8667 215.787 68.808C218.075 68.5733 220.686 68.3973 223.619 68.28C226.553 68.1627 229.457 68.0453 232.331 67.928C235.265 67.8107 237.905 67.6347 240.251 67.4C242.657 67.1067 244.475 66.696 245.707 66.168C247.526 65.3467 248.817 64.5547 249.579 63.792C250.342 62.9707 250.723 62.1787 250.723 61.416C250.723 60.3013 250.137 59.304 248.963 58.424C247.79 57.544 246.382 56.8693 244.739 56.4C243.097 55.9307 241.542 55.7547 240.075 55.872C239.723 55.872 239.547 55.8133 239.547 55.696C239.547 55.52 239.782 55.3733 240.251 55.256C240.545 55.1973 240.838 55.168 241.131 55.168C241.425 55.168 241.689 55.168 241.923 55.168C244.915 55.168 247.321 55.9307 249.139 57.456C251.017 58.9227 251.955 60.624 251.955 62.56C251.955 64.0267 251.281 65.4933 249.931 66.96C248.582 68.4267 246.382 69.6293 243.331 70.568C241.806 70.9787 240.251 71.3013 238.667 71.536C237.142 71.712 235.587 71.8 234.003 71.8C230.777 71.8 227.667 71.5947 224.675 71.184C221.683 70.7733 218.955 70.568 216.491 70.568C215.67 70.568 214.849 70.7147 214.027 71.008C213.265 71.2427 212.883 71.5947 212.883 72.064C212.883 72.2987 213.03 72.5627 213.323 72.856C213.617 73.0907 214.145 73.3547 214.907 73.648C215.025 73.7067 215.083 73.8533 215.083 74.088C215.142 74.3227 215.054 74.4693 214.819 74.528ZM210.419 117.824C208.014 117.824 206.078 117.384 204.611 116.504C203.145 115.683 202.411 114.597 202.411 113.248C202.411 112.192 202.881 111.048 203.819 109.816C204.758 108.643 206.225 107.411 208.219 106.12C210.155 104.888 212.238 103.773 214.467 102.776C216.755 101.779 218.897 100.957 220.891 100.312C222.886 99.608 224.382 99.168 225.379 98.992C225.555 98.9333 225.819 98.904 226.171 98.904C226.758 98.904 227.051 99.0213 227.051 99.256C227.051 99.4907 226.582 99.7253 225.643 99.96C224.705 100.136 223.297 100.635 221.419 101.456C219.601 102.277 217.635 103.275 215.523 104.448C213.47 105.563 211.593 106.765 209.891 108.056C208.366 109.171 207.251 110.197 206.547 111.136C205.843 112.075 205.491 112.867 205.491 113.512C205.491 114.333 205.931 114.979 206.811 115.448C207.691 115.917 208.894 116.152 210.419 116.152C211.651 116.152 213.059 115.976 214.643 115.624C218.75 114.744 222.769 113.336 226.699 111.4C230.689 109.523 234.297 107.176 237.523 104.36C240.809 101.485 243.39 98.2293 245.267 94.592C246.499 92.128 247.115 89.84 247.115 87.728C247.115 86.0853 246.646 84.7067 245.707 83.592C244.769 82.4773 243.214 81.92 241.043 81.92C240.515 81.92 239.958 81.9787 239.371 82.096C238.843 82.1547 238.257 82.2427 237.611 82.36C234.854 82.9467 232.155 83.8853 229.515 85.176C226.934 86.4667 224.441 87.816 222.035 89.224C221.683 89.4587 221.331 89.6933 220.979 89.928C220.627 90.104 220.246 90.2507 219.835 90.368H219.483C219.307 90.368 219.131 90.3387 218.955 90.28C218.779 90.1627 218.691 89.928 218.691 89.576C218.691 89.1653 218.779 88.7253 218.955 88.256C219.19 87.728 219.337 87.3173 219.395 87.024C219.865 85.792 220.275 84.2373 220.627 82.36C221.038 80.4827 221.39 78.7227 221.683 77.08C221.977 75.4373 222.153 74.3813 222.211 73.912C222.329 73.384 222.593 72.9733 223.003 72.68C223.414 72.3867 223.854 72.1813 224.323 72.064H224.851C225.145 72.064 225.438 72.1227 225.731 72.24C226.025 72.2987 226.201 72.4747 226.259 72.768C226.318 72.8853 226.23 73.4133 225.995 74.352C225.819 75.2907 225.555 76.4347 225.203 77.784C224.91 79.1333 224.587 80.512 224.235 81.92C223.942 83.2693 223.649 84.5013 223.355 85.616C223.121 86.672 222.945 87.3467 222.827 87.64C224.939 86.584 227.198 85.2933 229.603 83.768C232.067 82.2427 234.561 81.216 237.083 80.688C238.785 80.336 240.369 80.16 241.835 80.16C244.827 80.16 247.174 80.864 248.875 82.272C250.635 83.68 251.515 85.6453 251.515 88.168C251.515 90.0453 251.046 92.04 250.107 94.152C248.699 97.32 246.705 100.165 244.123 102.688C241.601 105.211 238.726 107.44 235.499 109.376C232.273 111.312 228.899 112.925 225.379 114.216C221.859 115.565 218.457 116.592 215.171 117.296C213.529 117.648 211.945 117.824 210.419 117.824ZM259.648 108.232C259.237 108.408 258.768 108.173 258.24 107.528C257.771 106.883 257.536 106.237 257.536 105.592C257.536 105.005 257.771 104.507 258.24 104.096C258.709 103.685 259.003 103.451 259.12 103.392C259.355 103.099 259.883 102.717 260.704 102.248C261.584 101.72 262.405 101.28 263.168 100.928C263.989 100.576 264.429 100.517 264.488 100.752C264.605 100.987 264.517 101.192 264.224 101.368C263.989 101.485 263.667 101.837 263.256 102.424C262.845 102.952 262.435 103.949 262.024 105.416C261.848 105.944 261.613 106.472 261.32 107C261.027 107.469 260.469 107.88 259.648 108.232ZM274.791 108.76C273.325 108.76 272.034 108.232 270.919 107.176C269.863 106.179 269.335 104.448 269.335 101.984C269.335 100.693 269.599 99.1093 270.127 97.232C270.655 95.296 271.359 93.272 272.239 91.16C273.178 89.048 274.234 87.0827 275.407 85.264C276.581 83.4453 277.813 81.9493 279.103 80.776C280.394 79.6027 281.655 79.016 282.887 79.016C283.885 79.016 284.589 79.368 284.999 80.072C285.469 80.776 285.703 81.5387 285.703 82.36C285.703 83.064 285.557 83.7093 285.263 84.296C285.029 84.824 284.677 85.088 284.207 85.088C283.738 85.088 283.386 84.8827 283.151 84.472C282.975 84.0027 282.799 83.5627 282.623 83.152C282.506 82.6827 282.183 82.448 281.655 82.448C280.599 82.448 279.543 83.152 278.487 84.56C277.431 85.9093 276.463 87.64 275.583 89.752C274.703 91.864 273.999 94.0347 273.471 96.264C272.943 98.4933 272.679 100.459 272.679 102.16C272.679 103.627 272.855 104.712 273.207 105.416C273.618 106.061 274.351 106.384 275.407 106.384C276.757 106.384 278.047 106.003 279.279 105.24C280.57 104.419 281.743 103.421 282.799 102.248C283.855 101.075 284.735 99.96 285.439 98.904C286.202 97.848 286.73 97.056 287.023 96.528C287.727 95.1787 288.285 94.504 288.695 94.504C288.871 94.504 288.959 94.7387 288.959 95.208C288.959 95.7947 288.842 96.3813 288.607 96.968C288.373 97.496 288.138 97.9947 287.903 98.464C287.082 100.224 285.967 101.896 284.559 103.48C283.151 105.005 281.597 106.267 279.895 107.264C278.253 108.261 276.551 108.76 274.791 108.76ZM293.678 108.672C292.094 108.672 290.656 108.115 289.366 107C288.427 106.179 287.752 105.211 287.342 104.096C286.931 102.981 286.726 101.779 286.726 100.488C286.726 99.4907 286.814 98.4933 286.99 97.496C287.224 96.44 287.488 95.4427 287.782 94.504C288.192 93.2133 288.72 92.04 289.366 90.984C290.011 89.928 290.568 89.1067 291.038 88.52C291.331 87.1707 291.888 85.5867 292.71 83.768C293.531 81.9493 294.528 80.1893 295.702 78.488C296.934 76.7867 298.312 75.3787 299.838 74.264C301.363 73.0907 302.947 72.504 304.59 72.504C306.526 72.504 308.198 73.384 309.606 75.144C311.072 76.8453 311.923 79.368 312.158 82.712C312.158 82.9467 312.158 83.1813 312.158 83.416C312.216 83.6507 312.246 83.9147 312.246 84.208C312.246 87.552 311.424 90.896 309.782 94.24C308.198 97.5253 306.291 100.341 304.062 102.688C302.771 104.096 301.187 105.445 299.31 106.736C297.432 108.027 295.555 108.672 293.678 108.672ZM294.118 106.824C295.702 106.824 297.403 106.091 299.222 104.624C301.275 102.981 303.035 100.899 304.502 98.376C305.968 95.8533 307.112 93.184 307.934 90.368C308.814 87.4933 309.342 84.7067 309.518 82.008C309.635 80.4827 309.43 79.016 308.902 77.608C308.374 76.2 307.259 75.2907 305.558 74.88C305.088 74.7627 304.707 74.704 304.414 74.704C303.299 74.704 302.155 75.056 300.982 75.76C299.867 76.464 298.84 77.344 297.902 78.4C297.022 79.456 296.318 80.512 295.79 81.568C295.32 82.5653 295.115 83.3867 295.174 84.032C295.526 83.68 296.112 83.1813 296.934 82.536C297.814 81.832 298.782 81.1867 299.838 80.6C300.894 80.0133 301.803 79.72 302.566 79.72C303.152 79.72 303.563 79.896 303.798 80.248C303.974 80.3653 304.003 80.6 303.886 80.952C303.123 80.7173 302.243 80.864 301.246 81.392C300.307 81.92 299.339 82.6533 298.342 83.592C297.403 84.5307 296.552 85.4693 295.79 86.408C295.027 87.3467 294.47 88.08 294.118 88.608C293.883 88.8427 293.619 89.136 293.326 89.488C293.091 89.84 292.944 90.2213 292.886 90.632C292.827 90.7493 292.798 91.0133 292.798 91.424C292.798 92.1867 293.032 93.1253 293.502 94.24C294.03 95.3547 294.968 96.352 296.318 97.232C297.667 98.112 299.544 98.6107 301.95 98.728C302.008 98.7867 302.038 98.8453 302.038 98.904C302.038 99.1387 301.803 99.3147 301.334 99.432C300.923 99.4907 300.659 99.52 300.542 99.52C300.366 99.5787 300.19 99.608 300.014 99.608C299.838 99.608 299.662 99.608 299.486 99.608C297.491 99.608 295.848 98.8747 294.558 97.408C293.267 95.8827 292.299 94.2107 291.654 92.392C290.187 95.56 289.454 98.3467 289.454 100.752C289.454 102.688 289.894 104.184 290.774 105.24C291.654 106.296 292.768 106.824 294.118 106.824ZM337.791 122.4C336.5 122.4 335.503 121.843 334.799 120.728C334.154 119.613 333.831 118.323 333.831 116.856C333.831 115.096 334.154 113.072 334.799 110.784C335.444 108.555 336.266 106.267 337.263 103.92C338.26 101.515 339.287 99.1973 340.343 96.968C341.458 94.7387 342.426 92.744 343.247 90.984C344.127 89.224 344.714 87.8747 345.007 86.936C345.359 85.88 345.535 85.088 345.535 84.56C345.535 83.9733 345.33 83.68 344.919 83.68C344.45 83.68 343.746 84.0613 342.807 84.824C341.927 85.528 341.076 86.32 340.255 87.2C339.434 88.08 338.847 88.7253 338.495 89.136C336.559 91.248 334.858 93.5947 333.391 96.176C331.924 98.7573 330.986 100.957 330.575 102.776C330.516 103.069 330.428 103.597 330.311 104.36C330.194 105.064 329.93 105.416 329.519 105.416C329.108 105.416 328.786 105.211 328.551 104.8C328.375 104.389 328.258 103.949 328.199 103.48C328.14 103.187 328.082 102.629 328.023 101.808C328.023 100.928 328.023 100.283 328.023 99.872C328.023 97.3493 328.287 94.8267 328.815 92.304C329.343 89.7227 329.93 87.2587 330.575 84.912C331.279 82.5067 331.895 80.3067 332.423 78.312C332.951 76.3173 333.215 74.616 333.215 73.208C333.215 72.2693 333.039 71.5067 332.687 70.92C332.394 70.2747 332.012 69.952 331.543 69.952C330.839 69.952 330.018 70.5387 329.079 71.712C328.199 72.8853 327.29 74.4693 326.351 76.464C325.412 78.4587 324.532 80.6587 323.711 83.064C322.948 85.4693 322.303 87.904 321.775 90.368C321.306 92.832 321.071 95.1493 321.071 97.32C321.071 98.552 321.159 99.8133 321.335 101.104C321.57 102.395 321.687 103.539 321.687 104.536C321.687 105.299 321.57 105.856 321.335 106.208C321.159 106.56 320.69 106.736 319.927 106.736C318.519 106.736 317.639 105.357 317.287 102.6C316.876 100.195 316.436 97.4667 315.967 94.416C315.556 91.3653 315.028 88.6667 314.383 86.32C314.207 85.6747 314.002 85 313.767 84.296C313.532 83.592 313.092 82.9467 312.447 82.36C312.388 82.2427 312.242 82.1253 312.007 82.008C311.772 81.8907 311.655 81.7733 311.655 81.656C311.655 81.4213 311.978 81.304 312.623 81.304C313.503 81.304 314.324 81.8027 315.087 82.8C315.85 83.7387 316.524 84.912 317.111 86.32C317.698 87.728 318.196 89.136 318.607 90.544C319.076 91.8933 319.428 92.9787 319.663 93.8C320.191 90.5733 320.778 87.64 321.423 85C322.068 82.3013 322.89 79.6907 323.887 77.168C324.591 75.4667 325.412 73.824 326.351 72.24C327.29 70.656 328.346 69.3653 329.519 68.368C330.692 67.312 331.924 66.784 333.215 66.784C334.036 66.784 335.004 67.224 336.119 68.104C337.292 68.984 337.879 70.392 337.879 72.328C337.879 73.208 337.644 74.264 337.175 75.496C336.764 76.6693 336.295 77.9893 335.767 79.456C335.004 81.5093 334.183 83.8267 333.303 86.408C332.423 88.9307 331.66 91.248 331.015 93.36C330.37 95.472 329.988 96.9387 329.871 97.76C329.754 98.6987 329.666 99.4907 329.607 100.136C329.607 100.723 329.607 101.28 329.607 101.808C329.959 100.283 330.722 98.5227 331.895 96.528C333.127 94.4747 334.242 92.744 335.239 91.336C336.354 89.752 337.527 88.256 338.759 86.848C340.05 85.3813 341.37 84.208 342.719 83.328C344.127 82.3893 345.506 81.92 346.855 81.92C347.5 81.92 348.058 82.096 348.527 82.448C348.996 82.8 349.231 83.4747 349.231 84.472C349.231 85.8213 348.791 87.376 347.911 89.136C347.09 90.8373 346.063 92.5973 344.831 94.416C343.658 96.176 342.572 97.9067 341.575 99.608C340.284 101.837 339.082 104.243 337.967 106.824C336.911 109.347 336.383 111.957 336.383 114.656C336.383 116.885 336.647 118.499 337.175 119.496C337.762 120.493 338.378 120.992 339.023 120.992C339.434 120.992 339.844 120.845 340.255 120.552C340.724 120.259 341.106 119.995 341.399 119.76C341.516 119.643 341.692 119.467 341.927 119.232C342.162 119.056 342.367 118.968 342.543 118.968C342.778 118.968 342.807 119.203 342.631 119.672C342.572 119.907 342.396 120.141 342.103 120.376C341.81 120.669 341.604 120.875 341.487 120.992C340.372 121.931 339.14 122.4 337.791 122.4Z" fill="#B21B1B"/>
</svg>
